<svg width="1065" height="51" fill="none" xmlns="http://www.w3.org/2000/svg"><path d="M28.707 50.02c-5.649 0-10.618-1.041-14.907-3.122-4.248-2.082-7.56-4.99-9.939-8.728C1.525 34.432.357 30.079.357 25.11c0-4.97 1.168-9.323 3.504-13.06C6.24 8.311 9.552 5.402 13.8 3.32 18.09 1.241 23.058.2 28.707.2c5.691 0 10.66 1.04 14.908 3.121 4.247 2.082 7.56 4.99 9.938 8.728 2.379 3.738 3.568 8.091 3.568 13.06 0 4.97-1.19 9.323-3.568 13.06-2.378 3.738-5.691 6.648-9.938 8.729-4.247 2.08-9.217 3.121-14.908 3.121Zm0-11.787c3.1 0 5.776-.53 8.027-1.592 2.251-1.062 3.971-2.57 5.16-4.524 1.232-1.953 1.848-4.29 1.848-7.007 0-2.719-.616-5.055-1.847-7.008-1.19-1.954-2.91-3.462-5.16-4.524-2.252-1.061-4.927-1.592-8.028-1.592-3.058 0-5.712.53-7.963 1.592-2.251 1.062-3.993 2.57-5.224 4.524-1.232 1.953-1.848 4.29-1.848 7.008s.616 5.054 1.848 7.007c1.231 1.954 2.973 3.462 5.224 4.524 2.25 1.062 4.905 1.592 7.963 1.592ZM63.927 1.22h13.188V49H63.928V1.22Zm37.588 0h13.252V49h-13.252V1.22ZM71.318 18.866h35.676v11.722H71.318V18.866ZM121.932 49v-9.556l31.281-30.707 9.556 2.803h-40.646V1.155h45.743v9.557l-31.281 30.77-8.218-2.866h39.69V49h-46.125Zm53.236-47.78h13.187V49h-13.187V1.22Zm37.888 0h13.188V49h-13.188V1.22Zm66.364 38.542-4.078.829V1.219h12.806V49H271.52L243.934 9.692l4.014-.828V49h-12.805V1.22h17.073l27.204 38.542Zm32.598-32.745h13.251V49h-13.251V7.017Zm-18.221-5.798h49.692v11.722h-49.692V1.22Zm96.222 19.112v9.557h-34.976V20.33h34.976Zm-25.993 4.779-3.122 19.176-5.351-5.989h36.568V49h-44.404l3.631-23.89-3.631-23.89h44.086v10.702h-36.25l5.351-5.989 3.122 19.177Zm44.847-2.995h17.392c2.124 0 3.78-.488 4.969-1.465 1.19-.977 1.784-2.336 1.784-4.077 0-1.784-.594-3.143-1.784-4.078-1.189-.976-2.845-1.465-4.969-1.465h-19.24l5.925-6.307V49h-13.187V1.22h28.35c3.652 0 6.838.657 9.556 1.974 2.718 1.274 4.842 3.058 6.371 5.352 1.529 2.25 2.293 4.926 2.293 8.027 0 3.015-.764 5.67-2.293 7.963-1.529 2.294-3.653 4.077-6.371 5.352-2.718 1.274-5.904 1.91-9.556 1.91h-19.24v-9.683Zm7.135 4.524h14.844L447.99 49H432.7l-16.692-22.361Zm46.312 13.187v-10.64h32.937v10.64H462.32ZM487.739 1.22 509.464 49h-14.08l-18.22-42.175h3.822L462.702 49h-14.079l21.724-47.78h17.392Zm76.457 27.777c-.467 4.204-1.912 7.9-4.332 11.085-2.421 3.143-5.607 5.585-9.557 7.326-3.907 1.742-8.409 2.612-13.506 2.612-5.563 0-10.427-1.04-14.589-3.121-4.162-2.082-7.411-4.99-9.747-8.728-2.294-3.738-3.44-8.091-3.44-13.06 0-4.97 1.146-9.323 3.44-13.06 2.336-3.738 5.585-6.647 9.747-8.729C526.374 1.241 531.238.2 536.801.2c5.097 0 9.599.87 13.506 2.612 3.95 1.741 7.136 4.205 9.557 7.39 2.42 3.143 3.865 6.817 4.332 11.021h-13.252c-.424-2.038-1.252-3.758-2.484-5.16-1.232-1.444-2.846-2.548-4.842-3.313-1.954-.764-4.226-1.146-6.817-1.146-2.973 0-5.542.552-7.708 1.656-2.166 1.062-3.823 2.612-4.97 4.65-1.146 1.997-1.72 4.396-1.72 7.2 0 2.803.574 5.224 1.72 7.262 1.147 1.996 2.804 3.547 4.97 4.65 2.166 1.063 4.735 1.594 7.708 1.594 2.591 0 4.863-.361 6.817-1.083 1.996-.722 3.61-1.806 4.842-3.25 1.232-1.444 2.06-3.206 2.484-5.287h13.252Zm19.575-21.98h13.252V49h-13.252V7.017Zm-18.22-5.797h49.692v11.722h-49.692V1.22Zm55.385 0h13.188V49h-13.188V1.22Zm50.373 41.856h-5.607L684.114 1.22h13.952L675.832 49H660.86L638.626 1.22h14.144l18.539 41.855Zm72.089-22.744v9.557h-34.975V20.33h34.975Zm-25.992 4.779-3.122 19.176-5.351-5.989h36.568V49h-44.405l3.632-23.89-3.632-23.89h44.086v10.702h-36.249l5.351-5.989 3.122 19.177Zm49.373 8.218h13.442c.212 1.316.828 2.463 1.848 3.44 1.019.977 2.378 1.741 4.077 2.294 1.741.51 3.78.764 6.116.764 3.228 0 5.776-.403 7.645-1.21 1.869-.85 2.803-2.081 2.803-3.695 0-1.232-.531-2.188-1.593-2.867-1.061-.68-3.1-1.168-6.116-1.466l-8.919-.828c-6.583-.594-11.361-2.08-14.334-4.46-2.973-2.42-4.46-5.67-4.46-9.747 0-3.312.956-6.116 2.867-8.41 1.954-2.293 4.672-4.013 8.155-5.16C781.835.795 785.934.2 790.606.2c4.586 0 8.664.658 12.231 1.975 3.568 1.274 6.392 3.1 8.474 5.479 2.123 2.378 3.27 5.139 3.44 8.282h-13.379c-.17-1.147-.722-2.124-1.656-2.93-.892-.85-2.124-1.488-3.695-1.912-1.572-.467-3.462-.701-5.67-.701-2.973 0-5.331.403-7.072 1.21-1.741.765-2.612 1.912-2.612 3.44 0 1.105.51 1.997 1.529 2.676 1.062.68 2.952 1.147 5.67 1.402l9.493.956c4.544.424 8.175 1.168 10.894 2.23 2.718 1.019 4.693 2.442 5.924 4.268 1.232 1.826 1.848 4.098 1.848 6.817 0 3.355-.998 6.285-2.994 8.791-1.996 2.464-4.8 4.396-8.41 5.798-3.61 1.359-7.815 2.038-12.614 2.038-4.927 0-9.28-.68-13.06-2.038-3.738-1.402-6.668-3.356-8.792-5.861-2.123-2.549-3.249-5.48-3.376-8.792Zm69.149-26.311h13.251V49h-13.251V7.017Zm-18.221-5.798h49.692v11.722h-49.692V1.22Zm67.936 26.439c0 2.166.403 4.056 1.21 5.67.85 1.571 2.081 2.782 3.695 3.631 1.657.85 3.674 1.274 6.052 1.274 2.421 0 4.439-.424 6.053-1.274 1.614-.85 2.824-2.06 3.631-3.631.807-1.614 1.21-3.504 1.21-5.67V1.219h13.252v27.076c0 4.374-1.02 8.197-3.058 11.467-1.996 3.228-4.8 5.755-8.41 7.582-3.61 1.783-7.836 2.675-12.678 2.675-4.799 0-9.025-.892-12.677-2.675-3.611-1.827-6.435-4.354-8.474-7.582-1.996-3.27-2.994-7.093-2.994-11.467V1.219h13.188v26.439ZM952.85 1.219c5.649 0 10.597.998 14.844 2.994 4.29 1.954 7.602 4.736 9.938 8.346 2.379 3.568 3.568 7.751 3.568 12.55 0 4.8-1.189 9.005-3.568 12.615-2.336 3.567-5.648 6.35-9.938 8.345C963.447 48.023 958.499 49 952.85 49h-23.827V1.22h23.827Zm-10.703 42.238-6.307-6.18h18.029c2.846 0 5.309-.488 7.39-1.465 2.124-1.019 3.759-2.442 4.906-4.268 1.147-1.826 1.72-3.971 1.72-6.434 0-2.506-.573-4.651-1.72-6.435-1.147-1.826-2.782-3.228-4.906-4.205-2.081-1.019-4.544-1.529-7.39-1.529H935.84l6.307-6.18v36.696ZM988.003 1.22h13.187V49h-13.187V1.22Zm48.337 48.8c-5.65 0-10.62-1.04-14.91-3.121-4.25-2.082-7.56-4.99-9.94-8.728-2.34-3.738-3.5-8.091-3.5-13.06 0-4.97 1.16-9.323 3.5-13.06 2.38-3.738 5.69-6.647 9.94-8.729 4.29-2.08 9.26-3.121 14.91-3.121 5.69 0 10.66 1.04 14.9 3.121 4.25 2.082 7.56 4.99 9.94 8.728 2.38 3.738 3.57 8.091 3.57 13.06 0 4.97-1.19 9.323-3.57 13.06-2.38 3.738-5.69 6.648-9.94 8.729-4.24 2.08-9.21 3.121-14.9 3.121Zm0-11.786c3.1 0 5.77-.53 8.02-1.592s3.98-2.57 5.16-4.524c1.24-1.953 1.85-4.29 1.85-7.007 0-2.719-.61-5.055-1.85-7.008-1.18-1.954-2.91-3.462-5.16-4.524-2.25-1.061-4.92-1.592-8.02-1.592-3.06 0-5.72.53-7.97 1.592s-3.99 2.57-5.22 4.524c-1.23 1.953-1.85 4.29-1.85 7.008s.62 5.054 1.85 7.007c1.23 1.954 2.97 3.462 5.22 4.524 2.25 1.062 4.91 1.592 7.97 1.592Z" fill="#fff"/></svg>